<?xml version="1.0" encoding="utf-8"?>
<!-- Generator: Adobe Illustrator 25.1.0, SVG Export Plug-In . SVG Version: 6.00 Build 0)  -->
<svg version="1.1" xmlns="http://www.w3.org/2000/svg" xmlns:xlink="http://www.w3.org/1999/xlink" x="0px" y="0px"
	 viewBox="0 0 20 20" style="enable-background:new 0 0 20 20;" xml:space="preserve">
<style type="text/css">
	.st0{fill:#E1E1E1;}
</style>
<g id="Layer_1">
</g>
<g id="svg3476">
	<path class="st0" d="M1.6,0.5l1.5,17.1l6.8,1.9l6.9-1.9l1.5-17.1H1.6z M14.9,8.2l-0.1,0.6l-0.5,5.5l0,0.4L10,15.9v0l0,0l-4.3-1.2
		l-0.3-3.3h1h1.1l0.1,1.7l2.3,0.6l0,0v0l2.3-0.6l0.2-2.7H10h0H5.3L5.1,8.2H10h0h2.8l0.2-2.1H10h0H4.9L4.7,4H10h0h5.2L14.9,8.2z"/>
</g>
</svg>
