<?xml version="1.0" encoding="utf-8"?>
<!-- Generator: Adobe Illustrator 25.1.0, SVG Export Plug-In . SVG Version: 6.00 Build 0)  -->
<svg version="1.1" id="Layer_1" xmlns="http://www.w3.org/2000/svg" xmlns:xlink="http://www.w3.org/1999/xlink" x="0px" y="0px"
	 viewBox="0 0 20 20" style="enable-background:new 0 0 20 20;" xml:space="preserve">
<style type="text/css">
	.st0{fill-rule:evenodd;clip-rule:evenodd;fill:#E4E4E4;}
</style>
<g>
	<path class="st0" d="M15.3,2.9c-0.4-0.2-0.8-0.2-1.1-0.2c-0.4,0-0.8,0.1-1.1,0.2c-0.4,0.2-0.7,0.4-1,0.7l-1.1,1.1
		c-0.4,0.4-1.2,0.4-1.6,0C8.9,4.2,8.9,3.5,9.3,3l1.1-1.1c0,0,0,0,0,0c0,0,0,0,0,0c0.5-0.5,1.1-0.9,1.7-1.1c0.6-0.3,1.3-0.4,2-0.4
		c0.7,0,1.4,0.1,2,0.4c0.6,0.3,1.2,0.7,1.7,1.1S18.7,3,19,3.6c0.3,0.6,0.4,1.3,0.4,2c0,0.7-0.1,1.4-0.4,2c-0.3,0.6-0.7,1.2-1.1,1.7
		c0,0,0,0,0,0L15.2,12c-0.5,0.5-1.1,0.9-1.7,1.1c-0.6,0.3-1.3,0.4-2,0.4c-0.7,0-1.4-0.1-2-0.4c-0.6-0.3-1.2-0.7-1.7-1.1
		c-0.4-0.4-0.4-1.2,0-1.6c0.4-0.4,1.2-0.4,1.6,0c0.3,0.3,0.6,0.5,1,0.7c0.4,0.2,0.8,0.2,1.1,0.2c0.4,0,0.8-0.1,1.1-0.2
		s0.7-0.4,1-0.7l2.7-2.7c0.3-0.3,0.5-0.6,0.7-1C17,6.4,17.1,6,17.1,5.6c0-0.4-0.1-0.8-0.2-1.1c-0.2-0.4-0.4-0.7-0.7-1
		C16,3.2,15.6,3,15.3,2.9z"/>
	<path class="st0" d="M8.3,8.5c-0.4,0-0.8,0.1-1.1,0.2c-0.4,0.2-0.7,0.4-1,0.7L3.5,12c-0.3,0.3-0.5,0.6-0.7,1
		c-0.2,0.4-0.2,0.8-0.2,1.1c0,0.4,0.1,0.8,0.2,1.1c0.2,0.4,0.4,0.7,0.7,1c0.3,0.3,0.6,0.5,1,0.7c0.4,0.2,0.8,0.2,1.1,0.2
		c0.4,0,0.8-0.1,1.1-0.2c0.4-0.2,0.7-0.4,1-0.7l1.1-1.1c0.4-0.4,1.2-0.4,1.6,0c0.4,0.4,0.4,1.2,0,1.6l-1.1,1.1c0,0,0,0,0,0
		c-0.5,0.5-1.1,0.9-1.7,1.1c-0.6,0.3-1.3,0.4-2,0.4c-0.7,0-1.4-0.1-2-0.4c-0.6-0.3-1.2-0.7-1.7-1.1c-0.5-0.5-0.9-1.1-1.1-1.7
		c-0.3-0.6-0.4-1.3-0.4-2c0-0.7,0.1-1.4,0.4-2c0.3-0.6,0.7-1.2,1.1-1.7c0,0,0,0,0,0c0,0,0,0,0,0l2.7-2.7C5,7.3,5.6,6.9,6.3,6.6
		c0.6-0.3,1.3-0.4,2-0.4c0.7,0,1.4,0.1,2,0.4c0.6,0.3,1.2,0.7,1.7,1.1c0.4,0.4,0.4,1.2,0,1.6c-0.4,0.4-1.2,0.4-1.6,0
		c-0.3-0.3-0.6-0.5-1-0.7C9.1,8.6,8.7,8.5,8.3,8.5z"/>
</g>
</svg>
